<svg xmlns="http://www.w3.org/2000/svg" width="860" height="460" viewBox="0 0 860 460" role="img">
<style>text{font-family:Arial,sans-serif;fill:#1b1b1b}.title{font-size:20px;font-weight:700}.label{font-size:12px}.small{font-size:10px}.axis{stroke:#333;stroke-width:1}.grid{stroke:#ddd;stroke-width:1}</style>
<text x="80" y="34" class="title">Figure 3. Decision breakdown by campaign</text>
<line x1="100" y1="370" x2="790" y2="370" class="axis"/>
<line x1="100" y1="70" x2="100" y2="370" class="axis"/>
<rect x="100.0" y="94.0" width="276.0" height="13.8" fill="#4b9b6f"/>
<text x="238.0" y="104.9" text-anchor="middle" class="small">2</text>
<rect x="376.0" y="94.0" width="0.0" height="13.8" fill="#d8a13f"/>
<rect x="376.0" y="94.0" width="414.0" height="13.8" fill="#b85450"/>
<text x="583.0" y="104.9" text-anchor="middle" class="small">3</text>
<text x="92" y="104.9" text-anchor="end" class="small">kdd_main_5trial</text>
<rect x="100.0" y="119.0" width="276.0" height="13.8" fill="#4b9b6f"/>
<text x="238.0" y="129.9" text-anchor="middle" class="small">2</text>
<rect x="376.0" y="119.0" width="0.0" height="13.8" fill="#d8a13f"/>
<rect x="376.0" y="119.0" width="414.0" height="13.8" fill="#b85450"/>
<text x="583.0" y="129.9" text-anchor="middle" class="small">3</text>
<text x="92" y="129.9" text-anchor="end" class="small">ablation_none</text>
<rect x="100.0" y="144.0" width="276.0" height="13.8" fill="#4b9b6f"/>
<text x="238.0" y="154.9" text-anchor="middle" class="small">2</text>
<rect x="376.0" y="144.0" width="0.0" height="13.8" fill="#d8a13f"/>
<rect x="376.0" y="144.0" width="414.0" height="13.8" fill="#b85450"/>
<text x="583.0" y="154.9" text-anchor="middle" class="small">3</text>
<text x="92" y="154.9" text-anchor="end" class="small">ablation_append_only_summary</text>
<rect x="100.0" y="169.0" width="276.0" height="13.8" fill="#4b9b6f"/>
<text x="238.0" y="179.9" text-anchor="middle" class="small">2</text>
<rect x="376.0" y="169.0" width="0.0" height="13.8" fill="#d8a13f"/>
<rect x="376.0" y="169.0" width="414.0" height="13.8" fill="#b85450"/>
<text x="583.0" y="179.9" text-anchor="middle" class="small">3</text>
<text x="92" y="179.9" text-anchor="end" class="small">ablation_append_only_summary_with_rationale</text>
<rect x="100.0" y="194.0" width="207.0" height="13.8" fill="#4b9b6f"/>
<text x="203.5" y="204.9" text-anchor="middle" class="small">3</text>
<rect x="307.0" y="194.0" width="483.0" height="13.8" fill="#d8a13f"/>
<text x="548.5" y="204.9" text-anchor="middle" class="small">7</text>
<rect x="790.0" y="194.0" width="0.0" height="13.8" fill="#b85450"/>
<text x="92" y="204.9" text-anchor="end" class="small">p8_memory10_none</text>
<rect x="100.0" y="219.0" width="276.0" height="13.8" fill="#4b9b6f"/>
<text x="238.0" y="229.9" text-anchor="middle" class="small">4</text>
<rect x="376.0" y="219.0" width="345.0" height="13.8" fill="#d8a13f"/>
<text x="548.5" y="229.9" text-anchor="middle" class="small">5</text>
<rect x="721.0" y="219.0" width="69.0" height="13.8" fill="#b85450"/>
<text x="755.5" y="229.9" text-anchor="middle" class="small">1</text>
<text x="92" y="229.9" text-anchor="end" class="small">p8_memory10_append_only_summary</text>
<rect x="100.0" y="244.0" width="276.0" height="13.8" fill="#4b9b6f"/>
<text x="238.0" y="254.9" text-anchor="middle" class="small">4</text>
<rect x="376.0" y="244.0" width="345.0" height="13.8" fill="#d8a13f"/>
<text x="548.5" y="254.9" text-anchor="middle" class="small">5</text>
<rect x="721.0" y="244.0" width="69.0" height="13.8" fill="#b85450"/>
<text x="755.5" y="254.9" text-anchor="middle" class="small">1</text>
<text x="92" y="254.9" text-anchor="end" class="small">p8_memory10_append_only_summary_with_rationale</text>
<rect x="100.0" y="269.0" width="69.0" height="13.8" fill="#4b9b6f"/>
<text x="134.5" y="279.9" text-anchor="middle" class="small">1</text>
<rect x="169.0" y="269.0" width="621.0" height="13.8" fill="#d8a13f"/>
<text x="479.5" y="279.9" text-anchor="middle" class="small">9</text>
<rect x="790.0" y="269.0" width="0.0" height="13.8" fill="#b85450"/>
<text x="92" y="279.9" text-anchor="end" class="small">lg_ablation2_none</text>
<rect x="100.0" y="294.0" width="276.0" height="13.8" fill="#4b9b6f"/>
<text x="238.0" y="304.9" text-anchor="middle" class="small">4</text>
<rect x="376.0" y="294.0" width="414.0" height="13.8" fill="#d8a13f"/>
<text x="583.0" y="304.9" text-anchor="middle" class="small">6</text>
<rect x="790.0" y="294.0" width="0.0" height="13.8" fill="#b85450"/>
<text x="92" y="304.9" text-anchor="end" class="small">lg_ablation2_append_only_summary</text>
<rect x="100.0" y="319.0" width="69.0" height="13.8" fill="#4b9b6f"/>
<text x="134.5" y="329.9" text-anchor="middle" class="small">1</text>
<rect x="169.0" y="319.0" width="621.0" height="13.8" fill="#d8a13f"/>
<text x="479.5" y="329.9" text-anchor="middle" class="small">9</text>
<rect x="790.0" y="319.0" width="0.0" height="13.8" fill="#b85450"/>
<text x="92" y="329.9" text-anchor="end" class="small">lg_ablation2_append_only_summary_with_rationale</text>
<rect x="100.0" y="344.0" width="0.0" height="13.8" fill="#4b9b6f"/>
<rect x="100.0" y="344.0" width="0.0" height="13.8" fill="#d8a13f"/>
<rect x="100.0" y="344.0" width="690.0" height="13.8" fill="#b85450"/>
<text x="445.0" y="354.9" text-anchor="middle" class="small">1</text>
<text x="92" y="354.9" text-anchor="end" class="small">kdd_stress_scope</text>
<rect x="100.0" y="369.0" width="0.0" height="13.8" fill="#4b9b6f"/>
<rect x="100.0" y="369.0" width="0.0" height="13.8" fill="#d8a13f"/>
<rect x="100.0" y="369.0" width="690.0" height="13.8" fill="#b85450"/>
<text x="445.0" y="379.9" text-anchor="middle" class="small">1</text>
<text x="92" y="379.9" text-anchor="end" class="small">kdd_stress_noop</text>
<rect x="100" y="400" width="14" height="14" fill="#4b9b6f"/>
<text x="120" y="412" class="label">kept</text>
<rect x="250" y="400" width="14" height="14" fill="#d8a13f"/>
<text x="270" y="412" class="label">discarded</text>
<rect x="400" y="400" width="14" height="14" fill="#b85450"/>
<text x="420" y="412" class="label">failed_invalid</text>
</svg>
