<svg xmlns="http://www.w3.org/2000/svg" width="780" height="420" viewBox="0 0 780 420">
<rect width="100%" height="100%" fill="white"/>
<text x="95" y="26" font-family="Arial" font-size="18" font-weight="700">Agent Trial Epoch Validation AUC</text>
<line x1="95" y1="350" x2="750" y2="350" stroke="#333"/>
<line x1="95" y1="40" x2="95" y2="350" stroke="#333"/>
<line x1="95" y1="272.5" x2="750" y2="272.5" stroke="#e5e7eb"/>
<text x="87" y="276.5" text-anchor="end" font-family="Arial" font-size="11">0.780756</text>
<line x1="95" y1="176.1" x2="750" y2="176.1" stroke="#e5e7eb"/>
<text x="87" y="180.1" text-anchor="end" font-family="Arial" font-size="11">0.782000</text>
<line x1="95" y1="117.5" x2="750" y2="117.5" stroke="#e5e7eb"/>
<text x="87" y="121.5" text-anchor="end" font-family="Arial" font-size="11">0.782756</text>
<polyline fill="none" stroke="#2563eb" stroke-width="3" points="95.0,117.5 422.5,272.5 750.0,176.1"/>
<circle cx="95.0" cy="117.5" r="5" fill="#2563eb"/>
<text x="95.0" y="105.5" text-anchor="middle" font-family="Arial" font-size="12">0.782756</text>
<circle cx="422.5" cy="272.5" r="5" fill="#2563eb"/>
<text x="422.5" y="260.5" text-anchor="middle" font-family="Arial" font-size="12">0.780756</text>
<circle cx="750.0" cy="176.1" r="5" fill="#2563eb"/>
<text x="750.0" y="164.1" text-anchor="middle" font-family="Arial" font-size="12">0.782000</text>
<text x="95.0" y="374" text-anchor="middle" font-family="Arial" font-size="12">agent</text>
<text x="422.5" y="402" text-anchor="middle" font-family="Arial" font-size="13">Epoch</text>
<text x="22" y="195.0" transform="rotate(-90 22 195.0)" text-anchor="middle" font-family="Arial" font-size="13">val_auc</text>
</svg>
