<svg xmlns="http://www.w3.org/2000/svg" width="760" height="420" viewBox="0 0 760 420">
<rect width="100%" height="100%" fill="white"/>
<text x="70" y="24" font-family="Arial" font-size="18" font-weight="700">Stage 2 Full-Round Dry Campaign Trajectory</text>
<line x1="70" y1="360" x2="735" y2="360" stroke="#333"/>
<line x1="70" y1="35" x2="70" y2="360" stroke="#333"/>
<line x1="70.0" y1="360" x2="70.0" y2="365" stroke="#333"/>
<text x="70.0" y="382" text-anchor="middle" font-family="Arial" font-size="11">1</text>
<line x1="117.5" y1="360" x2="117.5" y2="365" stroke="#333"/>
<line x1="165.0" y1="360" x2="165.0" y2="365" stroke="#333"/>
<text x="165.0" y="382" text-anchor="middle" font-family="Arial" font-size="11">3</text>
<line x1="212.5" y1="360" x2="212.5" y2="365" stroke="#333"/>
<line x1="260.0" y1="360" x2="260.0" y2="365" stroke="#333"/>
<line x1="307.5" y1="360" x2="307.5" y2="365" stroke="#333"/>
<text x="307.5" y="382" text-anchor="middle" font-family="Arial" font-size="11">6</text>
<line x1="355.0" y1="360" x2="355.0" y2="365" stroke="#333"/>
<line x1="402.5" y1="360" x2="402.5" y2="365" stroke="#333"/>
<line x1="450.0" y1="360" x2="450.0" y2="365" stroke="#333"/>
<text x="450.0" y="382" text-anchor="middle" font-family="Arial" font-size="11">9</text>
<line x1="497.5" y1="360" x2="497.5" y2="365" stroke="#333"/>
<line x1="545.0" y1="360" x2="545.0" y2="365" stroke="#333"/>
<line x1="592.5" y1="360" x2="592.5" y2="365" stroke="#333"/>
<text x="592.5" y="382" text-anchor="middle" font-family="Arial" font-size="11">12</text>
<line x1="640.0" y1="360" x2="640.0" y2="365" stroke="#333"/>
<line x1="687.5" y1="360" x2="687.5" y2="365" stroke="#333"/>
<line x1="735.0" y1="360" x2="735.0" y2="365" stroke="#333"/>
<text x="735.0" y="382" text-anchor="middle" font-family="Arial" font-size="11">15</text>
<line x1="70" y1="347.3" x2="735" y2="347.3" stroke="#e5e7eb"/>
<text x="62" y="351.3" text-anchor="end" font-family="Arial" font-size="11">0.780</text>
<line x1="70" y1="253.7" x2="735" y2="253.7" stroke="#e5e7eb"/>
<text x="62" y="257.7" text-anchor="end" font-family="Arial" font-size="11">0.785</text>
<line x1="70" y1="160.1" x2="735" y2="160.1" stroke="#e5e7eb"/>
<text x="62" y="164.1" text-anchor="end" font-family="Arial" font-size="11">0.790</text>
<line x1="70" y1="66.5" x2="735" y2="66.5" stroke="#e5e7eb"/>
<text x="62" y="70.5" text-anchor="end" font-family="Arial" font-size="11">0.795</text>
<polyline fill="none" stroke="#2563eb" stroke-width="3" points="70.0,328.5 117.5,309.8 165.0,291.1 212.5,272.4 260.0,253.7 307.5,234.9 355.0,216.2 402.5,197.5 450.0,178.8 497.5,160.1 545.0,141.3 592.5,122.6 640.0,103.9 687.5,85.2 735.0,66.5"/>
<circle cx="70.0" cy="328.5" r="4" fill="#2563eb"/>
<circle cx="117.5" cy="309.8" r="4" fill="#2563eb"/>
<circle cx="165.0" cy="291.1" r="4" fill="#2563eb"/>
<circle cx="212.5" cy="272.4" r="4" fill="#2563eb"/>
<circle cx="260.0" cy="253.7" r="4" fill="#2563eb"/>
<circle cx="307.5" cy="234.9" r="4" fill="#2563eb"/>
<circle cx="355.0" cy="216.2" r="4" fill="#2563eb"/>
<circle cx="402.5" cy="197.5" r="4" fill="#2563eb"/>
<circle cx="450.0" cy="178.8" r="4" fill="#2563eb"/>
<circle cx="497.5" cy="160.1" r="4" fill="#2563eb"/>
<circle cx="545.0" cy="141.3" r="4" fill="#2563eb"/>
<circle cx="592.5" cy="122.6" r="4" fill="#2563eb"/>
<circle cx="640.0" cy="103.9" r="4" fill="#2563eb"/>
<circle cx="687.5" cy="85.2" r="4" fill="#2563eb"/>
<circle cx="735.0" cy="66.5" r="4" fill="#2563eb"/>
<text x="402.5" y="402" text-anchor="middle" font-family="Arial" font-size="13">Budget index</text>
<text x="18" y="197.5" transform="rotate(-90 18 197.5)" text-anchor="middle" font-family="Arial" font-size="13">val_auc</text>
</svg>
